HIERARCHY
ROOT reference
{
  OFFSET 0 0 0
  CHANNELS 6 Xposition Yposition Zposition Zrotation Xrotation Yrotation
  JOINT Hips
  {
    OFFSET -3.8979 72.2306 -196.424
    CHANNELS 6 Xposition Yposition Zposition Zrotation Xrotation Yrotation
    JOINT Spine
    {
      OFFSET 0 7.59534 0
      CHANNELS 6 Xposition Yposition Zposition Zrotation Xrotation Yrotation
      JOINT Spine1
      {
        OFFSET 0 23.5015 0
        CHANNELS 6 Xposition Yposition Zposition Zrotation Xrotation Yrotation
        JOINT Neck
        {
          OFFSET 0 23.405 2.12773
          CHANNELS 6 Xposition Yposition Zposition Zrotation Xrotation Yrotation
          JOINT Head
          {
            OFFSET 0 12.9677 -1.85252
            CHANNELS 6 Xposition Yposition Zposition Zrotation Xrotation Yrotation
            End Site
            {
              OFFSET 0 23.1565 0
            }
          }
        }
        JOINT LeftShoulder
        {
          OFFSET 3.62206 22.4732 -0.132728
          CHANNELS 6 Xposition Yposition Zposition Zrotation Xrotation Yrotation
          JOINT LeftArm
          {
            OFFSET 8.17784 0 0
            CHANNELS 6 Xposition Yposition Zposition Zrotation Xrotation Yrotation
            JOINT LeftForeArm
            {
              OFFSET 30.104 0 0
              CHANNELS 6 Xposition Yposition Zposition Zrotation Xrotation Yrotation
              JOINT LeftHand
              {
                OFFSET 24.4664 0 0
                CHANNELS 6 Xposition Yposition Zposition Zrotation Xrotation Yrotation
                End Site
                {
                  OFFSET 13.8939 0 0
                }
              }
            }
          }
        }
        JOINT RightShoulder
        {
          OFFSET -3.6336 22.4732 -0.132728
          CHANNELS 6 Xposition Yposition Zposition Zrotation Xrotation Yrotation
          JOINT RightArm
          {
            OFFSET -8.17784 0 0
            CHANNELS 6 Xposition Yposition Zposition Zrotation Xrotation Yrotation
            JOINT RightForeArm
            {
              OFFSET -30.104 0 0
              CHANNELS 6 Xposition Yposition Zposition Zrotation Xrotation Yrotation
              JOINT RightHand
              {
                OFFSET -24.4664 0 0
                CHANNELS 6 Xposition Yposition Zposition Zrotation Xrotation Yrotation
                End Site
                {
                  OFFSET -13.8939 0 0
                }
              }
            }
          }
        }
      }
    }
    JOINT LeftUpLeg
    {
      OFFSET 9.26261 0 0
      CHANNELS 6 Xposition Yposition Zposition Zrotation Xrotation Yrotation
      JOINT LeftLeg
      {
        OFFSET 0 -35.4897 0
        CHANNELS 6 Xposition Yposition Zposition Zrotation Xrotation Yrotation
        JOINT LeftFoot
        {
          OFFSET 0 -38.2023 0
          CHANNELS 6 Xposition Yposition Zposition Zrotation Xrotation Yrotation
          JOINT LeftToeBase
          {
            OFFSET 0 -6.0207 13.8939
            CHANNELS 6 Xposition Yposition Zposition Zrotation Xrotation Yrotation
            End Site
            {
              OFFSET 0 0 3.70504
            }
          }
        }
      }
    }
    JOINT RightUpLeg
    {
      OFFSET -9.26261 0 0
      CHANNELS 6 Xposition Yposition Zposition Zrotation Xrotation Yrotation
      JOINT RightLeg
      {
        OFFSET 0 -35.4897 0
        CHANNELS 6 Xposition Yposition Zposition Zrotation Xrotation Yrotation
        JOINT RightFoot
        {
          OFFSET 0 -38.2023 0
          CHANNELS 6 Xposition Yposition Zposition Zrotation Xrotation Yrotation
          JOINT RightToeBase
          {
            OFFSET 0 -6.0207 13.8939
            CHANNELS 6 Xposition Yposition Zposition Zrotation Xrotation Yrotation
            End Site
            {
              OFFSET 0 0 3.70504
            }
          }
        }
      }
    }
  }
}
MOTION
Frames:	4
Frame Time:	0.004
0 0 0 0 0 -0 -27.2914 75.6341 -186.453 -0.791035 0.702152 -5.65946 7.10543e-015 7.59534 0 0.328202 -4.93267 1.12528 0 23.5015 -2.84217e-014 2.23499 -4.52108 1.19944 0 23.405 2.12773 -3.97489 29.5596 -1.59968 -7.10543e-015 12.9677 -1.85252 0.297672 -3.1231 -2.13454 3.62206 22.4732 -0.132728 11.2133 2.44714 12.7746 8.17784 0 0 -17.52 4.2921 -4.26993 30.104 0 0 1.79577 -0.807427 0.526348 24.4664 0 0 2.04637 -0.874531 -3.29674 -3.6336 22.4732 -0.132728 -9.05974 1.78397 20.8107 -8.17784 -2.84217e-014 -2.84217e-014 16.6274 1.40573 -5.19454 -30.104 -2.84217e-014 2.84217e-014 -1.48314 -0.778181 -1.51825 -24.4664 0 0 0.048269 -0.798056 -0.599747 9.26261 1.42109e-014 -2.84217e-014 3.00656 9.73247 2.96214 0 -35.4897 2.84217e-014 -1.65946 -7.54553 -2.77057 0 -38.2023 0 2.76177 -6.59597 12.3178 1.77636e-015 -6.0207 13.8939 2.98177e-016 0 -0 -9.26261 0 0 -2.18607 0.838984 -3.34808 0 -35.4897 2.84217e-014 -0.714113 4.77933 -8.57435 0 -38.2023 0 4.38406 -7.16825 10.8464 0 -6.0207 13.8939 -4.96962e-017 -1.98785e-016 -1.59028e-015 
0 0 0 0 0 -0 -27.2914 75.6341 -186.453 -0.792201 0.690385 -5.65944 0 7.59534 0 0.326825 -4.92257 1.11981 0 23.5015 0 2.2306 -4.51951 1.19382 0 23.405 2.12773 -3.95909 29.5623 -1.61549 0 12.9677 -1.85252 0.287774 -3.10456 -2.15073 3.62206 22.4732 -0.132728 11.2145 2.44251 12.7713 8.17784 0 2.84217e-014 -17.5166 4.33832 -4.27019 30.104 0 0 1.8048 -0.796109 0.540561 24.4664 0 -2.84217e-014 1.9496 -0.860767 -3.29692 -3.6336 22.4732 -0.132728 -9.0535 1.79441 20.8148 -8.17784 0 -2.84217e-014 16.6203 1.40573 -5.19453 -30.104 0 0 -1.48331 -0.783256 -1.52132 -24.4664 0 0 0.027647 -0.802986 -0.596274 9.26261 0 -2.84217e-014 3.00511 9.74957 2.9655 -3.55271e-015 -35.4897 0 -1.6644 -7.54577 -2.73204 0 -38.2023 -2.84217e-014 2.77006 -6.58748 12.2839 0 -6.0207 13.8939 9.93923e-017 7.95139e-016 7.95139e-016 -9.26261 0 0 -2.1849 0.864154 -3.32799 0 -35.4897 2.84217e-014 -0.718254 4.76656 -8.54821 1.42109e-014 -38.2023 0 4.38463 -7.16929 10.8024 7.10543e-015 -6.0207 13.8939 -8.27607e-033 -1.98785e-016 -2.38542e-015 
0 0 0 0 0 -0 -27.2914 75.6341 -186.451 -0.791033 0.702153 -5.65958 0 7.59534 0 0.299945 -4.9068 1.14783 0 23.5015 0 2.28474 -4.58314 1.22642 0 23.405 2.12773 -4.00535 29.6049 -1.64171 0 12.9677 -1.85252 0.336272 -3.09102 -2.17771 3.62206 22.4732 -0.132728 11.1943 2.4871 12.6841 8.17784 2.84217e-014 2.84217e-014 -17.5166 4.33807 -4.27019 30.104 0 0 1.78449 -0.780047 0.556983 24.4664 0 0 1.961 -0.844954 -3.2836 -3.6336 22.4732 -0.132728 -9.13771 1.86042 20.7525 -8.17784 2.84217e-014 -2.84217e-014 16.6546 1.40579 -5.16965 -30.104 0 0 -1.48372 -0.793259 -1.53152 -24.4664 0 0 0.081884 -0.813373 -0.585475 9.26261 -1.42109e-014 0 3.00381 9.73971 2.97616 0 -35.4897 0 -1.64886 -7.54247 -2.75265 0 -38.2023 2.84217e-014 2.75349 -6.58385 12.3003 0 -6.0207 13.8939 -1.98785e-016 7.95139e-016 -0 -9.26261 -1.42109e-014 2.84217e-014 -2.18531 0.849947 -3.35574 0 -35.4897 2.84217e-014 -0.714976 4.76968 -8.58126 0 -38.2023 2.84217e-014 4.37154 -7.1645 10.8534 0 -6.0207 13.8939 2.23633e-016 0 -0 
0 0 0 0 0 -0 -27.2914 75.6341 -186.448 -0.791235 0.701353 -5.64966 7.10543e-015 7.59534 2.84217e-014 0.294682 -4.88049 1.13387 0 23.5015 0 2.2889 -4.62212 1.21373 -7.10543e-015 23.405 2.12773 -4.01326 29.598 -1.63974 -7.10543e-015 12.9677 -1.85252 0.341052 -3.04049 -2.17575 3.62206 22.4732 -0.132728 11.1884 2.47846 12.7007 8.17784 0 0 -17.5087 4.44361 -4.2708 30.104 2.84217e-014 -2.84217e-014 1.81222 -0.81233 0.566828 24.4664 0 0 1.88714 -0.875572 -3.29696 -3.6336 22.4732 -0.132728 -9.11781 1.87399 20.7663 -8.17784 0 -2.84217e-014 16.6423 1.4202 -5.16912 -30.104 2.84217e-014 2.84217e-014 -1.4838 -0.796468 -1.53124 -24.4664 0 0 0.079104 -0.816657 -0.606032 9.26261 -1.42109e-014 0 3.0029 9.73067 2.98427 0 -35.4897 0 -1.65924 -7.53003 -2.7853 0 -38.2023 0 2.7968 -6.58642 12.296 3.55271e-015 -6.0207 13.8939 -9.93923e-017 0 -7.95139e-016 -9.26261 0 2.84217e-014 -2.18623 0.878678 -3.18629 0 -35.4897 0 -0.712483 4.72021 -8.74852 0 -38.2023 0 4.41162 -7.14703 10.8702 -7.10543e-015 -6.0207 13.8939 2.73329e-016 1.98785e-016 -0 
